<?xml version="1.0" encoding="UTF-8"?>
<svg width="470px" height="112px" viewBox="0 0 470 112" version="1.1" xmlns="http://www.w3.org/2000/svg" xmlns:xlink="http://www.w3.org/1999/xlink">
    <!-- Generator: Sketch 50.2 (55047) - http://www.bohemiancoding.com/sketch -->
    <title>wc-bradley</title>
    <desc>Created with Sketch.</desc>
    <defs></defs>
    <g id="Page-1" stroke="none" stroke-width="1" fill="none" fill-rule="evenodd">
        <g id="wc-bradley" fill-rule="nonzero">
            <path d="M72,2 L63.3,24.2 C61.9,27.8 60.5,31.5 59.1,35.1 C57.9,38.4 56.6,41.8 55.2,45.4 C53.9,41.9 52.6,38.5 51.3,35.2 C49.9,31.5 48.4,27.9 47,24.2 L38.3,2 L36.3,2 L27.6,24.2 L23.4,35.1 C22.1,38.4 20.8,41.8 19.5,45.3 C18.2,41.8 16.9,38.4 15.7,35.1 C14.3,31.4 12.9,27.8 11.5,24.2 L2.8,2 L0.3,2 L18.6,48.4 L20.6,48.4 L29.3,26.2 C30.8,22.5 32.2,18.9 33.6,15.2 C34.9,11.9 36.2,8.5 37.4,5.2 L41.3,15.3 C42.7,19 44.1,22.6 45.6,26.3 L54.3,48.5 L56.3,48.5 L74.6,2.1 L72,2.1 L72,2 Z M112.8,36.4 L112.5,36.8 C111.9,37.7 111,38.7 110,39.8 C109,40.9 107.7,42 106.3,42.9 C104.9,43.9 103.2,44.7 101.3,45.4 C99.4,46.1 97.3,46.4 95,46.4 C92.2,46.4 89.4,46 86.8,45.1 C84.2,44.3 81.8,43 79.8,41.2 C77.8,39.5 76.1,37.2 74.9,34.6 C73.7,32 73,28.8 73,25.3 C73,21.5 73.7,18.3 75,15.6 C76.3,12.9 78,10.7 80.2,9.1 C82.3,7.4 84.7,6.2 87.4,5.4 C90.1,4.6 92.8,4.2 95.5,4.2 C97.5,4.2 99.3,4.4 100.9,4.9 C102.5,5.4 104,6 105.3,6.8 C106.6,7.6 107.7,8.5 108.7,9.5 C109.7,10.5 110.6,11.6 111.3,12.7 L111.6,13.1 L113.6,11.9 L113.3,11.5 C112.5,10.2 111.5,9 110.4,7.9 C109.3,6.8 107.9,5.8 106.5,4.9 C105,4.1 103.4,3.4 101.6,2.9 C99.8,2.4 97.8,2.1 95.6,2.1 C92,2.1 88.6,2.6 85.7,3.7 C82.7,4.8 80.1,6.4 77.9,8.4 C75.7,10.4 74,12.9 72.7,15.7 C71.5,18.5 70.9,21.8 70.9,25.3 C70.9,28.8 71.5,32.1 72.8,35 C74.1,37.9 75.9,40.4 78.2,42.6 C80,44.3 82.4,45.7 85.4,46.9 C88.3,48 91.7,48.6 95.4,48.6 C97.9,48.6 100.2,48.3 102.2,47.6 C104.2,46.9 106,46.1 107.6,45.1 C109.2,44.1 110.6,43 111.8,41.8 C113,40.6 114,39.4 114.8,38.3 L115.1,37.9 L112.8,36.4 Z M318.3,80.9 C318,81.3 317.6,81.7 317.2,82.2 C316.8,82.6 316.3,83 315.8,83.4 C315.3,83.8 314.7,84.1 314,84.3 C312.5,84.8 310.5,84.8 308.8,84.2 C307.9,83.9 307,83.4 306.3,82.8 C305.6,82.2 305,81.4 304.5,80.4 C304.1,79.5 303.8,78.3 303.8,77 C303.8,75.6 304,74.4 304.5,73.5 C305,72.5 305.6,71.7 306.3,71.1 C307.1,70.5 307.9,70 308.9,69.8 C310.6,69.3 312.4,69.2 313.7,69.6 C314.3,69.8 314.8,70 315.3,70.3 C315.8,70.6 316.2,71 316.6,71.4 C317,71.8 317.3,72.3 317.6,72.7 L317.8,73 L319.5,71.9 L319.3,71.6 C318.9,71 318.5,70.4 318,69.9 C317.5,69.4 316.9,68.9 316.3,68.6 C315.7,68.2 315,67.9 314.2,67.7 C313.4,67.5 312.6,67.4 311.8,67.4 C310.4,67.4 309,67.6 307.8,68.1 C306.6,68.5 305.5,69.2 304.6,70 C303.7,70.8 303,71.9 302.5,73 C302,74.2 301.7,75.5 301.7,76.9 C301.7,78.3 302,79.7 302.5,80.9 C303,82.1 303.8,83.1 304.7,84 C305.5,84.7 306.4,85.3 307.6,85.8 C308.8,86.3 310.2,86.5 311.6,86.5 C312.6,86.5 313.6,86.4 314.4,86.1 C315.2,85.8 316,85.5 316.6,85 C317.3,84.6 317.9,84.1 318.4,83.5 C318.9,83 319.4,82.4 319.7,81.9 L319.9,81.6 L318.2,80.5 L318.3,80.9 Z M341.9,69.9 C341,69.1 339.9,68.5 338.7,68.1 C336.3,67.3 333.6,67.3 331.2,68.1 C330,68.5 328.9,69.1 328,69.9 C327.1,70.7 326.3,71.7 325.7,72.9 C325.1,74.1 324.9,75.5 324.9,77.1 C324.9,78.7 325.2,80.1 325.7,81.3 C326.3,82.5 327,83.5 328,84.3 C328.9,85.1 330,85.7 331.2,86.1 C332.4,86.5 333.7,86.7 334.9,86.7 C336.2,86.7 337.4,86.5 338.6,86.1 C339.8,85.7 340.9,85.1 341.8,84.3 C342.7,83.5 343.5,82.5 344.1,81.3 C344.7,80.1 344.9,78.7 344.9,77.1 C344.9,75.5 344.6,74.1 344.1,72.9 C343.6,71.7 342.8,70.7 341.9,69.9 Z M342.9,77.1 C342.9,78.4 342.7,79.5 342.2,80.5 C341.8,81.5 341.2,82.2 340.4,82.9 C339.7,83.5 338.8,84 337.8,84.3 C335.8,84.9 333.6,84.9 331.7,84.3 C330.7,84 329.9,83.5 329.1,82.9 C328.4,82.3 327.8,81.5 327.3,80.5 C326.9,79.6 326.6,78.4 326.6,77.1 C326.6,75.8 326.8,74.7 327.3,73.7 C327.7,72.7 328.3,71.9 329.1,71.3 C329.8,70.7 330.7,70.2 331.7,69.9 C332.7,69.6 333.7,69.4 334.8,69.4 C335.9,69.4 336.9,69.6 337.9,69.9 C338.9,70.2 339.7,70.7 340.5,71.3 C341.2,71.9 341.8,72.7 342.3,73.7 C342.7,74.6 342.9,75.8 342.9,77.1 Z M369,77.9 C367.4,80.3 366.1,82.2 365.2,83.6 C364.3,82.2 363,80.3 361.4,77.9 C359.6,75.2 357.4,71.9 354.8,67.9 L354.7,67.7 L352.8,67.7 L352.8,86.2 L354.8,86.2 L354.8,76.4 L354.8,71.5 C355.7,72.9 356.8,74.5 358.1,76.5 C359.8,79.1 361.9,82.2 364.4,86 L364.5,86.2 L365.9,86.2 L372.3,76.6 C373.6,74.6 374.8,72.9 375.7,71.5 L375.7,86.2 L377.7,86.2 L377.7,67.7 L375.8,67.7 L369,77.9 Z M399.1,69.3 C398.3,68.8 397.3,68.5 396.1,68.2 C394.9,67.9 393.5,67.8 391.9,67.8 L385.6,67.8 L385.6,86.3 L387.6,86.3 L387.6,79.3 L391.4,79.3 C393.1,79.3 394.6,79.2 395.8,78.9 C397.1,78.7 398.1,78.3 398.9,77.8 C399.7,77.3 400.4,76.7 400.8,76 C401.2,75.3 401.4,74.4 401.4,73.5 C401.4,72.6 401.2,71.8 400.8,71.1 C400.5,70.4 399.9,69.8 399.1,69.3 Z M399.4,73.5 C399.4,74 399.3,74.5 399.1,75 C398.9,75.4 398.5,75.8 397.9,76.2 C397.3,76.6 396.5,76.8 395.4,77.1 C394.3,77.3 393,77.4 391.4,77.4 L387.7,77.4 L387.7,69.8 L392.1,69.8 C393.6,69.8 394.8,69.9 395.8,70.1 C396.8,70.3 397.5,70.6 398.1,71 C398.6,71.3 399,71.7 399.2,72.2 C399.3,72.6 399.4,73 399.4,73.5 Z M411.5,67.8 L403.3,86.3 L405.5,86.3 L408.1,80.4 L416.1,80.4 L418.8,86.3 L421,86.3 L412.8,67.8 L411.5,67.8 Z M415.2,78.4 L409,78.4 L411.6,72.4 C411.8,72 412,71.6 412.1,71.1 C412.3,71.5 412.5,72 412.7,72.4 L413.6,74.5 L415.2,78.4 Z M442,77.8 L442,82.8 C440.9,81.4 439.5,79.7 437.7,77.5 C435.6,74.9 433,71.7 429.9,67.9 L429.8,67.8 L428,67.8 L428,86.3 L430,86.3 L430,76.3 L430,71.2 C431.1,72.6 432.5,74.4 434.3,76.5 C436.4,79.1 439,82.3 442.1,86.1 L442.2,86.2 L444,86.2 L444,67.7 L442,67.7 L442,77.8 Z M466.5,67.8 L462.8,72.7 C462.3,73.4 461.7,74.1 461.2,74.8 C460.8,75.4 460.3,75.9 459.9,76.5 C459.5,75.9 459,75.3 458.6,74.8 C458.1,74.1 457.5,73.4 457,72.7 L453.3,67.8 L450.8,67.8 L458.8,78.5 L458.8,86.3 L460.8,86.3 L460.8,78.5 L468.8,67.8 L466.5,67.8 Z" id="Shape" fill="#000000"></path>
            <path d="M206.4,23.7 C208.8,22.8 210.6,21.5 211.8,20 C213.3,18.1 214,15.9 214,13.3 C214,11.4 213.6,9.7 212.7,8.2 C211.8,6.7 210.4,5.4 208.5,4.3 C206.6,3.3 204.2,2.4 201.4,1.9 C198.5,1.3 195.1,1.1 191.1,1.1 L177,1.1 L177,49.6 L190.8,49.6 C192.5,49.6 194.4,49.6 196.4,49.5 C198.4,49.4 200.3,49.2 202.2,48.9 C204.1,48.6 206,48.1 207.7,47.5 C209.5,46.9 211.1,46.1 212.4,45 C213.8,44 214.9,42.7 215.7,41.2 C216.5,39.7 216.9,37.8 216.9,35.7 C216.9,32.4 215.8,29.7 213.6,27.6 C211.8,25.8 209.4,24.6 206.4,23.7 Z M181.5,26.1 L191.9,26.1 C195.6,26.1 198.9,26.3 201.5,26.8 C204.1,27.3 206.3,28 207.9,28.8 C209.5,29.6 210.7,30.6 211.4,31.8 C212.1,32.9 212.5,34.2 212.5,35.5 C212.5,37.5 211.9,39.2 210.7,40.4 C209.5,41.7 207.8,42.7 205.8,43.4 C203.8,44.1 201.4,44.6 198.8,44.8 C196.2,45 193.5,45.2 190.8,45.2 L181.4,45.2 L181.4,26.1 L181.5,26.1 Z M206.6,19 C205.3,19.8 203.4,20.5 201,21.1 C198.5,21.6 195.1,21.9 190.9,21.9 L181.4,21.9 L181.4,5.3 L190.8,5.3 C194.5,5.3 197.6,5.5 200,6 C202.4,6.5 204.4,7.1 205.8,7.8 C207.2,8.5 208.1,9.4 208.7,10.3 C209.2,11.2 209.5,12.2 209.5,13.2 C209.5,14.2 209.3,15.2 209,16.3 C208.7,17.2 207.9,18.1 206.6,19 Z M345.5,7.7 C343.2,5.6 340.3,3.9 336.9,2.8 C333.5,1.7 329.4,1.1 324.9,1.1 L308.9,1.1 L308.9,47.2 L286.5,1.4 L286.4,1.1 L283.4,1.1 L261.3,46.5 L243.6,29.5 C245.5,29.2 247.3,28.7 249,28.1 C251,27.3 252.8,26.3 254.3,25 C255.8,23.7 257,22.3 257.8,20.7 C258.7,19.1 259.1,17.2 259.1,15.2 C259.1,10.8 257.1,7.3 253.3,4.8 C249.5,2.4 243.4,1.2 235.2,1.2 L218.4,1.2 L218.4,49.7 L222.9,49.7 L222.9,30 L238,30 L258.3,49.7 L265,49.7 L272.8,33.9 L297,33.9 L304.8,49.7 L324.9,49.7 C329.5,49.7 333.5,49.1 336.9,48 C340.3,46.9 343.2,45.2 345.5,43.1 C347.8,41 349.5,38.4 350.6,35.4 C351.7,32.4 352.3,29.1 352.3,25.5 C352.3,21.9 351.7,18.5 350.6,15.6 C349.5,12.4 347.8,9.8 345.5,7.7 Z M347.9,25.3 C347.9,28.3 347.5,31 346.6,33.4 C345.7,35.8 344.4,37.9 342.6,39.6 C340.8,41.3 338.4,42.7 335.5,43.7 C332.6,44.7 329.1,45.2 325.1,45.2 L313.4,45.2 L313.4,5.3 L325,5.3 C329,5.3 332.5,5.8 335.4,6.8 C338.3,7.8 340.7,9.2 342.5,10.9 C344.3,12.6 345.7,14.7 346.5,17.2 C347.5,19.6 347.9,22.3 347.9,25.3 Z M294.9,29.4 L274.8,29.4 L280.2,18.1 L282.7,12.7 C283.4,11.2 284.1,9.7 284.9,8.1 C285.6,9.7 286.4,11.3 287.1,12.8 C288,14.6 288.9,16.5 289.7,18.3 L294.9,29.4 Z M250.8,22.1 C249.5,23.1 247.9,23.9 245.9,24.5 C243.9,25.1 241.6,25.4 239,25.4 L222.9,25.4 L222.9,5.2 L234.7,5.2 C239,5.2 242.6,5.5 245.2,6.1 C247.8,6.7 249.8,7.5 251.2,8.4 C252.6,9.3 253.5,10.4 254,11.5 C254.5,12.7 254.7,13.8 254.7,15 C254.7,16.3 254.4,17.5 253.7,18.8 C253.1,20.1 252.1,21.2 250.8,22.1 Z M359.2,1 L354.8,1 L354.8,49.5 L389.5,49.5 L389.5,45.2 L359.2,45.2 L359.2,1 Z M463.9,1 L454.2,13.9 L450,19.6 C448.7,21.3 447.4,23 446.1,24.8 C444.8,23 443.5,21.3 442.2,19.7 C440.8,17.9 439.4,16 437.9,14 L428.2,1 L392,1 L392,49.5 L425.7,49.5 L425.7,45.2 L396.4,45.2 L396.4,26.3 L419.5,26.3 L419.5,22 L396.4,22 L396.4,5.2 L424.8,5.2 L424.8,3.7 L443.7,28.8 L443.7,49.4 L448.2,49.4 L448.2,28.8 L469.2,0.9 L463.9,0.9 L463.9,1 Z" id="Shape" fill="#000000"></path>
            <polygon id="Shape" fill="#E02826" points="147.2 1.5 150.7 1.5 150.7 111.4 147.2 111.4"></polygon>
        </g>
    </g>
</svg>